<?xml version="1.0" encoding="utf-8"?>
<!-- Generator: Adobe Illustrator 22.0.0, SVG Export Plug-In . SVG Version: 6.00 Build 0)  -->
<svg version="1.1" id="图层_1" xmlns="http://www.w3.org/2000/svg" xmlns:xlink="http://www.w3.org/1999/xlink" x="0px" y="0px"
	 viewBox="0 0 128 128" style="enable-background:new 0 0 128 128;" xml:space="preserve">
<style type="text/css">
	.st0{fill:#F49D2A;}
</style>
<title>Vue</title>
<desc>Created with Sketch.</desc>
<path class="st0" d="M67.9,121.5c-0.2,0-0.4,0-0.7,0C67.5,121.6,67.7,121.5,67.9,121.5z"/>
<g>
	<path class="st0" d="M60.8,75.1l14.7-14.7c2.2-2.2,2.2-5.9,0-8.1c-2.2-2.2-5.9-2.2-8.1,0L52.6,67c-2.2,2.2-2.2,5.9,0,8.1
		C54.9,77.4,58.5,77.4,60.8,75.1z"/>
	<path class="st0" d="M95.5,15.7c-1.7-1.1-4.5-2.5-6.8-3.7c-0.8-0.4-1.8-0.7-2.8-0.7c-1.8,0-3.5,0.9-4.5,2.2l-5.9,5.9l0,0L41,53.9
		c-1.1,1.1-1.7,2.6-1.7,4c0,1.5,0.6,3,1.7,4.1c2.2,2.2,5.9,2.3,8.1,0l37.3-37.3l0,0c0.2-0.2,0.5-0.4,0.9-0.4c0.2,0,0.3,0,0.5,0.1
		c0.1,0,0.2,0.1,0.2,0.2c0,0,0,0,0,0l0,0c13.2,8.1,22,22.7,22,39.3c0,24.4-18.9,44.4-42.9,46l0,0c-3.2,0-5.8,2.6-5.8,5.8
		c0,3.2,2.6,5.8,5.8,5.8l0,0c0.2,0,0.5,0,0.7,0h0c30-2,53.7-27,53.7-57.5C121.7,43.8,111.2,26,95.5,15.7z"/>
	<path class="st0" d="M86.8,65.7c-2.2-2.2-5.9-2.3-8.1,0l-37.5,37.5l0,0c-0.2,0.2-0.4,0.3-0.8,0.3c-0.3,0-0.5-0.1-0.7-0.2l0,0
		C26.6,95.1,17.9,80.6,17.9,64c0-24.3,18.8-44.3,42.7-46l0,0c3.2,0,5.8-2.6,5.8-5.8s-2.6-5.8-5.8-5.8l0,0c-0.2,0-0.5,0-0.8,0
		C29.9,8.7,6.4,33.6,6.4,64c0,20.1,10.3,37.8,25.9,48.1c1.7,1.1,4.4,2.6,6.7,3.7l0,0c0.8,0.4,1.8,0.7,2.8,0.7c1.5,0,3-0.6,4-1.6
		l0.2-0.2l0.1-0.1l6.1-6.1c0,0,0,0,0,0l34.8-34.8C89.1,71.6,89.1,68,86.8,65.7z"/>
</g>
</svg>
